<mxfile host="drawio-plugin" modified="2022-10-04T03:49:23.707Z" agent="5.0 (Macintosh; Intel Mac OS X 10_15_7) AppleWebKit/537.36 (KHTML, like Gecko) Chrome/98.0.4758.102 Safari/537.36" etag="Yxe7OlIlnvlXgfU5slEZ" version="15.5.4" type="embed"><diagram id="Yo6Zvny2ZRX3JAPKxXua" name="Page 2"><mxGraphModel dx="702" dy="550" grid="1" gridSize="10" guides="1" tooltips="1" connect="1" arrows="1" fold="1" page="1" pageScale="1" pageWidth="850" pageHeight="1100" math="0" shadow="0"><root><mxCell id="0"/><mxCell id="1" parent="0"/><mxCell id="8I9pphBKhg92I5GMk5e_-31" value="" style="graphMlID=e0;endArrow=none;strokeColor=#FF6392;strokeWidth=1.0;startArrow=diamond;startFill=0;endFill=1;exitX=1;exitY=0.25;exitDx=0;exitDy=0;fontColor=#5AA9E6;entryX=-0.008;entryY=-0.286;entryDx=0;entryDy=0;entryPerimeter=0;" parent="1" source="8I9pphBKhg92I5GMk5e_-50" target="8I9pphBKhg92I5GMk5e_-57" edge="1"><mxGeometry relative="1" as="geometry"/></mxCell><mxCell id="8I9pphBKhg92I5GMk5e_-32" value="" style="graphMlID=e1;endArrow=none;strokeColor=#FF6392;strokeWidth=1.0;startArrow=diamond;startFill=0;endFill=1;exitX=1;exitY=0.5;exitDx=0;exitDy=0;fontColor=#5AA9E6;entryX=0;entryY=0.5;entryDx=0;entryDy=0;" parent="1" source="8I9pphBKhg92I5GMk5e_-51" target="8I9pphBKhg92I5GMk5e_-61" edge="1"><mxGeometry relative="1" as="geometry"/></mxCell><mxCell id="8I9pphBKhg92I5GMk5e_-33" value="" style="graphMlID=e2;endArrow=none;strokeColor=#FF6392;strokeWidth=1.0;startArrow=diamond;startFill=0;endFill=1;fontColor=#5AA9E6;entryX=0;entryY=0.25;entryDx=0;entryDy=0;" parent="1" source="8I9pphBKhg92I5GMk5e_-60" target="8I9pphBKhg92I5GMk5e_-89" edge="1"><mxGeometry relative="1" as="geometry"><mxPoint x="648" y="240" as="sourcePoint"/></mxGeometry></mxCell><mxCell id="8I9pphBKhg92I5GMk5e_-34" value="" style="graphMlID=e3;endArrow=none;strokeColor=#FF6392;strokeWidth=1.0;startArrow=diamond;startFill=0;endFill=1;exitX=0.988;exitY=-0.077;exitDx=0;exitDy=0;exitPerimeter=0;fontColor=#5AA9E6;entryX=-0.023;entryY=0.105;entryDx=0;entryDy=0;entryPerimeter=0;" parent="1" source="8I9pphBKhg92I5GMk5e_-53" target="8I9pphBKhg92I5GMk5e_-64" edge="1"><mxGeometry relative="1" as="geometry"><mxPoint x="840" y="580" as="targetPoint"/></mxGeometry></mxCell><mxCell id="8I9pphBKhg92I5GMk5e_-35" value="" style="graphMlID=e4;endArrow=none;strokeColor=#FF6392;strokeWidth=1.0;startArrow=diamond;startFill=0;endFill=1;exitX=0.975;exitY=1;exitDx=0;exitDy=0;exitPerimeter=0;fontColor=#5AA9E6;entryX=0;entryY=0.5;entryDx=0;entryDy=0;" parent="1" source="8I9pphBKhg92I5GMk5e_-53" target="8I9pphBKhg92I5GMk5e_-71" edge="1"><mxGeometry relative="1" as="geometry"/></mxCell><mxCell id="8I9pphBKhg92I5GMk5e_-36" value="" style="graphMlID=e5;endArrow=none;strokeColor=#FF6392;strokeWidth=1.0;startArrow=diamond;startFill=0;endFill=1;fontColor=#5AA9E6;exitX=1.001;exitY=-0.077;exitDx=0;exitDy=0;exitPerimeter=0;" parent="1" source="8I9pphBKhg92I5GMk5e_-55" target="8I9pphBKhg92I5GMk5e_-82" edge="1"><mxGeometry relative="1" as="geometry"/></mxCell><mxCell id="8I9pphBKhg92I5GMk5e_-37" value="" style="graphMlID=e6;endArrow=none;strokeColor=#FF6392;strokeWidth=1.0;startArrow=diamond;startFill=0;endFill=1;fontColor=#5AA9E6;" parent="1" source="8I9pphBKhg92I5GMk5e_-64" target="8I9pphBKhg92I5GMk5e_-97" edge="1"><mxGeometry relative="1" as="geometry"/></mxCell><mxCell id="8I9pphBKhg92I5GMk5e_-38" value="" style="graphMlID=e7;endArrow=none;strokeColor=#FF6392;strokeWidth=1.0;startArrow=none;startFill=1;endFill=1;fontColor=#5AA9E6;entryX=0;entryY=0.25;entryDx=0;entryDy=0;exitX=1;exitY=0.5;exitDx=0;exitDy=0;" parent="1" source="8I9pphBKhg92I5GMk5e_-67" target="8I9pphBKhg92I5GMk5e_-72" edge="1"><mxGeometry relative="1" as="geometry"/></mxCell><mxCell id="8I9pphBKhg92I5GMk5e_-39" value="" style="graphMlID=e8;endArrow=none;strokeColor=#FF6392;strokeWidth=1.0;startArrow=diamond;startFill=0;endFill=1;fontColor=#5AA9E6;exitX=1;exitY=0.5;exitDx=0;exitDy=0;entryX=0;entryY=0.5;entryDx=0;entryDy=0;" parent="1" source="8I9pphBKhg92I5GMk5e_-57" target="8I9pphBKhg92I5GMk5e_-86" edge="1"><mxGeometry relative="1" as="geometry"><mxPoint x="710" y="80" as="sourcePoint"/></mxGeometry></mxCell><mxCell id="8I9pphBKhg92I5GMk5e_-40" value="" style="graphMlID=e9;endArrow=none;strokeColor=#FF6392;strokeWidth=1.0;startArrow=diamond;startFill=0;endFill=1;fontColor=#5AA9E6;exitX=1;exitY=0.5;exitDx=0;exitDy=0;entryX=-0.013;entryY=0.08;entryDx=0;entryDy=0;entryPerimeter=0;" parent="1" source="8I9pphBKhg92I5GMk5e_-86" target="8I9pphBKhg92I5GMk5e_-105" edge="1"><mxGeometry relative="1" as="geometry"/></mxCell><mxCell id="8I9pphBKhg92I5GMk5e_-41" value="" style="graphMlID=e10;endArrow=none;strokeColor=#FF6392;strokeWidth=1.0;startArrow=diamond;startFill=0;endFill=1;fontColor=#5AA9E6;exitX=0.998;exitY=0.132;exitDx=0;exitDy=0;exitPerimeter=0;entryX=0.008;entryY=0.345;entryDx=0;entryDy=0;entryPerimeter=0;" parent="1" source="8I9pphBKhg92I5GMk5e_-85" target="8I9pphBKhg92I5GMk5e_-101" edge="1"><mxGeometry relative="1" as="geometry"/></mxCell><mxCell id="8I9pphBKhg92I5GMk5e_-42" value="" style="graphMlID=e11;endArrow=none;strokeColor=#FF6392;strokeWidth=1.0;startArrow=diamond;startFill=0;endFill=1;fontColor=#5AA9E6;exitX=1;exitY=0.5;exitDx=0;exitDy=0;entryX=0.006;entryY=0.178;entryDx=0;entryDy=0;entryPerimeter=0;" parent="1" source="8I9pphBKhg92I5GMk5e_-97" target="8I9pphBKhg92I5GMk5e_-109" edge="1"><mxGeometry relative="1" as="geometry"/></mxCell><mxCell id="8I9pphBKhg92I5GMk5e_-43" value="" style="graphMlID=e12;endArrow=none;strokeColor=#FF6392;strokeWidth=1.0;startArrow=diamond;startFill=0;endFill=1;fontColor=#5AA9E6;exitX=0.999;exitY=0.387;exitDx=0;exitDy=0;exitPerimeter=0;entryX=-0.014;entryY=0.373;entryDx=0;entryDy=0;entryPerimeter=0;" parent="1" source="8I9pphBKhg92I5GMk5e_-109" target="8I9pphBKhg92I5GMk5e_-112" edge="1"><mxGeometry relative="1" as="geometry"/></mxCell><mxCell id="8I9pphBKhg92I5GMk5e_-44" value="" style="graphMlID=e13;endArrow=none;strokeColor=#FF6392;strokeWidth=1.0;startArrow=none;startFill=1;endFill=1;fontColor=#5AA9E6;entryX=0.528;entryY=0.978;entryDx=0;entryDy=0;entryPerimeter=0;exitX=0.57;exitY=-0.037;exitDx=0;exitDy=0;exitPerimeter=0;" parent="1" source="8I9pphBKhg92I5GMk5e_-60" target="8I9pphBKhg92I5GMk5e_-57" edge="1"><mxGeometry relative="1" as="geometry"/></mxCell><mxCell id="8I9pphBKhg92I5GMk5e_-45" value="" style="graphMlID=e14;endArrow=none;strokeColor=#FF6392;strokeWidth=1.0;startArrow=none;startFill=1;endFill=1;fontColor=#5AA9E6;exitX=0.5;exitY=0;exitDx=0;exitDy=0;" parent="1" source="8I9pphBKhg92I5GMk5e_-96" target="8I9pphBKhg92I5GMk5e_-88" edge="1"><mxGeometry relative="1" as="geometry"><mxPoint x="1177.6990312711996" y="279.6614280464578" as="targetPoint"/></mxGeometry></mxCell><mxCell id="8I9pphBKhg92I5GMk5e_-50" value="VirtualWorld" style="swimlane;fontStyle=1;align=center;verticalAlign=top;childLayout=stackLayout;horizontal=1;startSize=20;horizontalStack=0;resizeParent=1;resizeParentMax=0;resizeLast=0;collapsible=1;marginBottom=0;hachureGap=4;pointerEvents=0;fillColor=#FFE45E;strokeColor=#FF6392;fontColor=#5AA9E6;" parent="1" vertex="1"><mxGeometry x="20" y="150" width="300" height="610" as="geometry"/></mxCell><mxCell id="8I9pphBKhg92I5GMk5e_-51" value="+TIMER_ACTION_PERIOD: int         &lt;&lt;static&gt;&gt;&#10;+VIEW_WIDTH: int                          &lt;&lt;static&gt;&gt;&#10;+VIEW_HEIGHT: int                         &lt;&lt;static&gt;&gt;&#10;+TILE_WIDTH: int                           &lt;&lt;static&gt;&gt;&#10;+TILE_HEIGHT: int                          &lt;&lt;static&gt;&gt;&#10;+WORLD_WIDTH_SCALE: int           &lt;&lt;static&gt;&gt;&#10;+WORLD_HEIGHT_SCALE: int          &lt;&lt;static&gt;&gt;&#10;+VIEW_COLS: int                             &lt;&lt;static&gt;&gt;&#10;+VIEW_ROWS: int                            &lt;&lt;static&gt;&gt;&#10;+WORLD_COLS: int                         &lt;&lt;static&gt;&gt;&#10;+WORLD_ROWS: int                        &lt;&lt;static&gt;&gt;&#10;+IMAGE_LIST_FILE_NAME: String    &lt;&lt;static&gt;&gt;&#10;+DEFAULT_IMAGE_NAME: String    &lt;&lt;static&gt;&gt;&#10;+DEFAULT_IMAGE_COLOR: int       &lt;&lt;static&gt;&gt;&#10;+LOAD_FILE_NAME: String            &lt;&lt;static&gt;&gt;&#10;+FAST_FLAG: String                      &lt;&lt;static&gt;&gt;&#10;+FASTER_FLAG: String                  &lt;&lt;static&gt;&gt;&#10;+FASTEST_FLAG: String                &lt;&lt;static&gt;&gt;&#10;+FAST_SCALE: double                  &lt;&lt;static&gt;&gt;&#10;+FASTER_SCALE: double              &lt;&lt;static&gt;&gt;&#10;+FASTEST_SCALE: double            &lt;&lt;static&gt;&gt;&#10;+timeScale: double&#10;+imageStore: ImageStore&#10;+world: WorldModel&#10;+view: WorldView&#10;+scheduler: EventScheduler" style="text;strokeColor=none;fillColor=none;align=left;verticalAlign=top;spacingLeft=4;spacingRight=4;overflow=hidden;rotatable=0;points=[[0,0.5],[1,0.5]];portConstraint=eastwest;fontColor=#5AA9E6;" parent="8I9pphBKhg92I5GMk5e_-50" vertex="1"><mxGeometry y="20" width="300" height="380" as="geometry"/></mxCell><mxCell id="8I9pphBKhg92I5GMk5e_-52" value="" style="line;strokeWidth=1;fillColor=none;align=left;verticalAlign=middle;spacingTop=-1;spacingLeft=3;spacingRight=3;rotatable=0;labelPosition=right;points=[];portConstraint=eastwest;strokeColor=#FF6392;fontColor=#5AA9E6;" parent="8I9pphBKhg92I5GMk5e_-50" vertex="1"><mxGeometry y="400" width="300" height="8" as="geometry"/></mxCell><mxCell id="8I9pphBKhg92I5GMk5e_-53" value="+settings()&#10;+setup()&#10;+draw()&#10;+mousePressed()&#10;-mouseToPoint()&#10;+keyPressed()&#10;+createDefaultBackground()         &lt;&lt;static&gt;&gt;&#10;+createImageColored()                 &lt;&lt;static&gt;&gt;&#10;+loadWorld()                                 &lt;&lt;static&gt;&gt;&#10;+loadWorld()                                 &lt;&lt;static&gt;&gt;&#10;+scheduleActions()                       &lt;&lt;static&gt;&gt;&#10;+parseCommandLine()                  &lt;&lt;static&gt;&gt;&#10;+main()                                         &lt;&lt;static&gt;&gt;" style="text;strokeColor=none;fillColor=none;align=left;verticalAlign=top;spacingLeft=4;spacingRight=4;overflow=hidden;rotatable=0;points=[[0,0.5],[1,0.5]];portConstraint=eastwest;fontColor=#5AA9E6;" parent="8I9pphBKhg92I5GMk5e_-50" vertex="1"><mxGeometry y="408" width="300" height="202" as="geometry"/></mxCell><mxCell id="8I9pphBKhg92I5GMk5e_-54" value="WorldModel" style="swimlane;fontStyle=1;align=center;verticalAlign=top;childLayout=stackLayout;horizontal=1;startSize=26;horizontalStack=0;resizeParent=1;resizeParentMax=0;resizeLast=0;collapsible=1;marginBottom=0;hachureGap=4;pointerEvents=0;sketch=0;fontColor=#5AA9E6;strokeColor=#FF6392;fillColor=#FFE45E;" parent="1" vertex="1"><mxGeometry x="520" y="52.03" width="280" height="156" as="geometry"/></mxCell><mxCell id="8I9pphBKhg92I5GMk5e_-55" value="+numRows: int&#10;+numCols: int&#10;+background: Background[][]&#10;+occupancy: Entity[][]&#10;+entities: Set&lt;Entity&gt;" style="text;strokeColor=none;fillColor=none;align=left;verticalAlign=top;spacingLeft=4;spacingRight=4;overflow=hidden;rotatable=0;points=[[0,0.5],[1,0.5]];portConstraint=eastwest;fontColor=#000000;" parent="8I9pphBKhg92I5GMk5e_-54" vertex="1"><mxGeometry y="26" width="280" height="90" as="geometry"/></mxCell><mxCell id="8I9pphBKhg92I5GMk5e_-56" value="" style="line;strokeWidth=1;fillColor=none;align=left;verticalAlign=middle;spacingTop=-1;spacingLeft=3;spacingRight=3;rotatable=0;labelPosition=right;points=[];portConstraint=eastwest;strokeColor=#FF6392;fontColor=#5AA9E6;" parent="8I9pphBKhg92I5GMk5e_-54" vertex="1"><mxGeometry y="116" width="280" height="8" as="geometry"/></mxCell><mxCell id="8I9pphBKhg92I5GMk5e_-57" value="TODO" style="text;strokeColor=none;fillColor=none;align=left;verticalAlign=top;spacingLeft=4;spacingRight=4;overflow=hidden;rotatable=0;points=[[0,0.5],[1,0.5]];portConstraint=eastwest;fontColor=#020405;" parent="8I9pphBKhg92I5GMk5e_-54" vertex="1"><mxGeometry y="124" width="280" height="32" as="geometry"/></mxCell><mxCell id="8I9pphBKhg92I5GMk5e_-60" value="WorldView" style="swimlane;fontStyle=1;align=center;verticalAlign=top;childLayout=stackLayout;horizontal=1;startSize=26;horizontalStack=0;resizeParent=1;resizeParentMax=0;resizeLast=0;collapsible=1;marginBottom=0;hachureGap=4;pointerEvents=0;sketch=0;fontColor=#5AA9E6;strokeColor=#FF6392;fillColor=#FFE45E;" parent="1" vertex="1"><mxGeometry x="520" y="263.05" width="280" height="168" as="geometry"/></mxCell><mxCell id="8I9pphBKhg92I5GMk5e_-61" value="+screen: PApplet&#10;+world: WorldModel&#10;+tileWidth: int&#10;+tileHeight: int&#10;+viewport: Viewport" style="text;strokeColor=none;fillColor=none;align=left;verticalAlign=top;spacingLeft=4;spacingRight=4;overflow=hidden;rotatable=0;points=[[0,0.5],[1,0.5]];portConstraint=eastwest;fontColor=#000000;" parent="8I9pphBKhg92I5GMk5e_-60" vertex="1"><mxGeometry y="26" width="280" height="84" as="geometry"/></mxCell><mxCell id="8I9pphBKhg92I5GMk5e_-62" value="" style="line;strokeWidth=1;fillColor=none;align=left;verticalAlign=middle;spacingTop=-1;spacingLeft=3;spacingRight=3;rotatable=0;labelPosition=right;points=[];portConstraint=eastwest;strokeColor=#FF6392;fontColor=#5AA9E6;" parent="8I9pphBKhg92I5GMk5e_-60" vertex="1"><mxGeometry y="110" width="280" height="8" as="geometry"/></mxCell><mxCell id="8I9pphBKhg92I5GMk5e_-63" value="TODO" style="text;strokeColor=none;fillColor=none;align=left;verticalAlign=top;spacingLeft=4;spacingRight=4;overflow=hidden;rotatable=0;points=[[0,0.5],[1,0.5]];portConstraint=eastwest;fontColor=#000000;" parent="8I9pphBKhg92I5GMk5e_-60" vertex="1"><mxGeometry y="118" width="280" height="50" as="geometry"/></mxCell><mxCell id="8I9pphBKhg92I5GMk5e_-64" value="EventScheduler" style="swimlane;fontStyle=1;align=center;verticalAlign=top;childLayout=stackLayout;horizontal=1;startSize=26;horizontalStack=0;resizeParent=1;resizeParentMax=0;resizeLast=0;collapsible=1;marginBottom=0;hachureGap=4;pointerEvents=0;sketch=0;fontColor=#5AA9E6;strokeColor=#FF6392;fillColor=#FFE45E;" parent="1" vertex="1"><mxGeometry x="520" y="450" width="280" height="150" as="geometry"/></mxCell><mxCell id="8I9pphBKhg92I5GMk5e_-65" value="+eventQueue: PriorityQueue&lt;Event&gt;&#10;+pendingEvents: Map&lt;Entity, List&lt;Event&gt;&gt;&#10;+timeScale: double" style="text;strokeColor=none;fillColor=none;align=left;verticalAlign=top;spacingLeft=4;spacingRight=4;overflow=hidden;rotatable=0;points=[[0,0.5],[1,0.5]];portConstraint=eastwest;fontColor=#000000;" parent="8I9pphBKhg92I5GMk5e_-64" vertex="1"><mxGeometry y="26" width="280" height="64" as="geometry"/></mxCell><mxCell id="8I9pphBKhg92I5GMk5e_-66" value="" style="line;strokeWidth=1;fillColor=none;align=left;verticalAlign=middle;spacingTop=-1;spacingLeft=3;spacingRight=3;rotatable=0;labelPosition=right;points=[];portConstraint=eastwest;strokeColor=#FF6392;fontColor=#5AA9E6;" parent="8I9pphBKhg92I5GMk5e_-64" vertex="1"><mxGeometry y="90" width="280" height="8" as="geometry"/></mxCell><mxCell id="8I9pphBKhg92I5GMk5e_-67" value="TODO" style="text;strokeColor=none;fillColor=none;align=left;verticalAlign=top;spacingLeft=4;spacingRight=4;overflow=hidden;rotatable=0;points=[[0,0.5],[1,0.5]];portConstraint=eastwest;fontColor=#000000;" parent="8I9pphBKhg92I5GMk5e_-64" vertex="1"><mxGeometry y="98" width="280" height="26" as="geometry"/></mxCell><mxCell id="8I9pphBKhg92I5GMk5e_-76" value="TODO" style="text;strokeColor=none;fillColor=none;align=left;verticalAlign=top;spacingLeft=4;spacingRight=4;overflow=hidden;rotatable=0;points=[[0,0.5],[1,0.5]];portConstraint=eastwest;fontColor=#5AA9E6;" parent="8I9pphBKhg92I5GMk5e_-64" vertex="1"><mxGeometry y="124" width="280" height="26" as="geometry"/></mxCell><mxCell id="8I9pphBKhg92I5GMk5e_-68" value="ImageStore" style="swimlane;fontStyle=1;align=center;verticalAlign=top;childLayout=stackLayout;horizontal=1;startSize=26;horizontalStack=0;resizeParent=1;resizeParentMax=0;resizeLast=0;collapsible=1;marginBottom=0;hachureGap=4;pointerEvents=0;sketch=0;fontColor=#5AA9E6;strokeColor=#FF6392;fillColor=#FFE45E;" parent="1" vertex="1"><mxGeometry x="520" y="600" width="280" height="114" as="geometry"/></mxCell><mxCell id="8I9pphBKhg92I5GMk5e_-69" value="+images: Map&lt;String, List&lt;PImage&gt;&gt;&#10;+defaultImages: List&lt;PImage&gt;" style="text;strokeColor=none;fillColor=none;align=left;verticalAlign=top;spacingLeft=4;spacingRight=4;overflow=hidden;rotatable=0;points=[[0,0.5],[1,0.5]];portConstraint=eastwest;fontColor=#000000;" parent="8I9pphBKhg92I5GMk5e_-68" vertex="1"><mxGeometry y="26" width="280" height="54" as="geometry"/></mxCell><mxCell id="8I9pphBKhg92I5GMk5e_-70" value="" style="line;strokeWidth=1;fillColor=none;align=left;verticalAlign=middle;spacingTop=-1;spacingLeft=3;spacingRight=3;rotatable=0;labelPosition=right;points=[];portConstraint=eastwest;strokeColor=#FF6392;fontColor=#5AA9E6;" parent="8I9pphBKhg92I5GMk5e_-68" vertex="1"><mxGeometry y="80" width="280" height="8" as="geometry"/></mxCell><mxCell id="8I9pphBKhg92I5GMk5e_-71" value="TODO" style="text;strokeColor=none;fillColor=none;align=left;verticalAlign=top;spacingLeft=4;spacingRight=4;overflow=hidden;rotatable=0;points=[[0,0.5],[1,0.5]];portConstraint=eastwest;fontColor=#000000;" parent="8I9pphBKhg92I5GMk5e_-68" vertex="1"><mxGeometry y="88" width="280" height="26" as="geometry"/></mxCell><mxCell id="8I9pphBKhg92I5GMk5e_-72" value="EventComparator" style="swimlane;fontStyle=1;align=center;verticalAlign=top;childLayout=stackLayout;horizontal=1;startSize=26;horizontalStack=0;resizeParent=1;resizeParentMax=0;resizeLast=0;collapsible=1;marginBottom=0;hachureGap=4;pointerEvents=0;sketch=0;fontColor=#5AA9E6;strokeColor=#FF6392;fillColor=#FFE45E;" parent="1" vertex="1"><mxGeometry x="850" y="580" width="240" height="134" as="geometry"/></mxCell><mxCell id="8I9pphBKhg92I5GMk5e_-73" value="+eventQueue: PriorityQueue&lt;Event&gt;&#10;+pendingEvents: Map&lt;Entity, List&lt;Event&gt;&gt;&#10;+timeScale: double" style="text;strokeColor=none;fillColor=none;align=left;verticalAlign=top;spacingLeft=4;spacingRight=4;overflow=hidden;rotatable=0;points=[[0,0.5],[1,0.5]];portConstraint=eastwest;fontColor=#000000;" parent="8I9pphBKhg92I5GMk5e_-72" vertex="1"><mxGeometry y="26" width="240" height="74" as="geometry"/></mxCell><mxCell id="8I9pphBKhg92I5GMk5e_-74" value="" style="line;strokeWidth=1;fillColor=none;align=left;verticalAlign=middle;spacingTop=-1;spacingLeft=3;spacingRight=3;rotatable=0;labelPosition=right;points=[];portConstraint=eastwest;strokeColor=#FF6392;fontColor=#5AA9E6;" parent="8I9pphBKhg92I5GMk5e_-72" vertex="1"><mxGeometry y="100" width="240" height="8" as="geometry"/></mxCell><mxCell id="8I9pphBKhg92I5GMk5e_-75" value="TODO" style="text;strokeColor=none;fillColor=none;align=left;verticalAlign=top;spacingLeft=4;spacingRight=4;overflow=hidden;rotatable=0;points=[[0,0.5],[1,0.5]];portConstraint=eastwest;fontColor=#000000;" parent="8I9pphBKhg92I5GMk5e_-72" vertex="1"><mxGeometry y="108" width="240" height="26" as="geometry"/></mxCell><mxCell id="8I9pphBKhg92I5GMk5e_-77" value="Functions" style="swimlane;fontStyle=1;align=center;verticalAlign=top;childLayout=stackLayout;horizontal=1;startSize=26;horizontalStack=0;resizeParent=1;resizeParentMax=0;resizeLast=0;collapsible=1;marginBottom=0;hachureGap=4;pointerEvents=0;sketch=0;fontColor=#5AA9E6;strokeColor=#FF6392;fillColor=#FFE45E;" parent="1" vertex="1"><mxGeometry x="512.57" y="750" width="360" height="2350" as="geometry"/></mxCell><mxCell id="8I9pphBKhg92I5GMk5e_-78" value="+rand: Random                                &lt;&lt;static&gt;&gt;&#10;&#10;+COLOR_MASK: int                             &lt;&lt;static&gt;&gt;&#10;+KEYED_IMAGE_MIN: int                        &lt;&lt;static&gt;&gt;&#10;+KEYED_RED_IDX: int                        &lt;&lt;static&gt;&gt;&#10;+KEYED_GREEN_IDX: int                        &lt;&lt;static&gt;&gt;&#10;+KEYED_BLUE_IDX: int                        &lt;&lt;static&gt;&gt;&#10;&#10;+PROPERTY_KEY: int                           &lt;&lt;static&gt;&gt;&#10;&#10;+PATH_KEYS: List&lt;String                    &lt;&lt;static&gt;&gt;&#10;&#10;+SAPLING_KEY: String                            &lt;&lt;static&gt;&gt;&#10;+SAPLING_HEALTH_LIMIT: int                               &lt;&lt;static&gt;&gt;&#10;+ SAPLING_ACTION_ANIMATION_PERIOD:  int     &lt;&lt;static&gt;&gt;&#10;+SAPLING_NUM_PROPERTIES: int                      &lt;&lt;static&gt;&gt;&#10;+SAPLING_ID: String                            &lt;&lt;static&gt;&gt;&#10;+SAPLING_COL: int                    &lt;&lt;static&gt;&gt;&#10;+SAPLING_ROW: int                                &lt;&lt;static&gt;&gt;&#10;+SAPLING_HEALTH: int                               &lt;&lt;static&gt;&gt;&#10;&#10;&#10;+BGND_KEY: String                            &lt;&lt;static&gt;&gt;&#10;+BGND_NUM_PROPERTIES: int                    &lt;&lt;static&gt;&gt;&#10;+BGND_ID: int                                &lt;&lt;static&gt;&gt;&#10;+BGND_COL: int                               &lt;&lt;static&gt;&gt;&#10;+BGND_ROW: int                               &lt;&lt;static&gt;&gt;&#10;&#10;+OBSTACLE_KEY: String                        &lt;&lt;static&gt;&gt;&#10;+OBSTACLE_NUM_PROPERTIES: int                &lt;&lt;static&gt;&gt;&#10;+OBSTACLE_ID: int                            &lt;&lt;static&gt;&gt;&#10;+OBSTACLE_COL: int                           &lt;&lt;static&gt;&gt;&#10;+OBSTACLE_ROW: int                           &lt;&lt;static&gt;&gt;&#10;+OBSTACLE_ANIMATION_PERIOD: int     &lt;&lt;static&gt;&gt;&#10;&#10;+DUDE_KEY: String                               &lt;&lt;static&gt;&gt;&#10;+DUDE_NUM_PROPERTIES: int                     &lt;&lt;static&gt;&gt;&#10;+DUDE_ID: String                           &lt;&lt;static&gt;&gt;&#10;+DUDE_COL: int                   &lt;&lt;static&gt;&gt;&#10;+DUDE_ROW: int                               &lt;&lt;static&gt;&gt;&#10;+DUDE_LIMIT: int                              &lt;&lt;static&gt;&gt;&#10;+DUDE_ACTION_PERIOD: int             &lt;&lt;static&gt;&gt;&#10;+DUDE_ANIMATION_PERIOD: int          &lt;&lt;static&gt;&gt;&#10;&#10;+HOUSE_KEY: String                           &lt;&lt;static&gt;&gt;&#10;+HOUSE_NUM_PROPERTIES: int                 &lt;&lt;static&gt;&gt;&#10;+HOUSE_ID: String                          &lt;&lt;static&gt;&gt;&#10;+HOUSE_COL: int                        &lt;&lt;static&gt;&gt;&#10;+HOUSE_ROW: int                       &lt;&lt;static&gt;&gt;&#10;&#10;+FAIRY_KEY: String                            &lt;&lt;static&gt;&gt;&#10;+FAIRY_NUM_PROPERTIES: int         &lt;&lt;static&gt;&gt;&#10;+ FAIRY_ID:  String                     &lt;&lt;static&gt;&gt;&#10;+FAIRY_COL: int                    &lt;&lt;static&gt;&gt;&#10;+FAIRY_ROW: int                                &lt;&lt;static&gt;&gt;&#10;+FAIRY_ANIMATION_PERIOD: int      &lt;&lt;static&gt;&gt;&#10;+FAIRY_ACTION_PERIOD: int      &lt;&lt;static&gt;&gt;&#10;&#10;+TREE_KEY: String                            &lt;&lt;static&gt;&gt;&#10;+TREE_NUM_PROPERTIES: int                      &lt;&lt;static&gt;&gt;&#10;+TREE_ID: String                            &lt;&lt;static&gt;&gt;&#10;+TREE_COL: int                    &lt;&lt;static&gt;&gt;&#10;+TREE_ROW: int                                &lt;&lt;static&gt;&gt;&#10;+TREE_ANIMATION_PERIOD: int      &lt;&lt;static&gt;&gt;&#10;+TREE_ACTION_PERIOD: int          &lt;&lt;static&gt;&gt;&#10;+SAPLING_HEALTH: int                               &lt;&lt;static&gt;&gt;&#10;" style="text;strokeColor=none;fillColor=none;align=left;verticalAlign=top;spacingLeft=4;spacingRight=4;overflow=hidden;rotatable=0;points=[[0,0.5],[1,0.5]];portConstraint=eastwest;fontColor=#0A0A0A;" parent="8I9pphBKhg92I5GMk5e_-77" vertex="1"><mxGeometry y="26" width="360" height="964" as="geometry"/></mxCell><mxCell id="8I9pphBKhg92I5GMk5e_-79" value="" style="line;strokeWidth=1;fillColor=none;align=left;verticalAlign=middle;spacingTop=-1;spacingLeft=3;spacingRight=3;rotatable=0;labelPosition=right;points=[];portConstraint=eastwest;strokeColor=#FF6392;fontColor=#5AA9E6;" parent="8I9pphBKhg92I5GMk5e_-77" vertex="1"><mxGeometry y="990" width="360" height="8" as="geometry"/></mxCell><mxCell id="8I9pphBKhg92I5GMk5e_-80" value="+getCurrentImage(): PImage            &lt;&lt;static&gt;&gt;&#10;+getAnimationPeriod(): int                   &lt;&lt;static&gt;&gt;&#10;+nextImage()                                 &lt;&lt;static&gt;&gt;&#10;+executeAction()                             &lt;&lt;static&gt;&gt;&#10;+executeAnimationAction()                    &lt;&lt;static&gt;&gt;&#10;+executeActivityAction()                     &lt;&lt;static&gt;&gt;&#10;&#10;+executeSaplingActivity()                  &lt;&lt;static&gt;&gt;&#10;+executeTreeActivity()             &lt;&lt;static&gt;&gt;&#10;+executeFairyActivity()                           &lt;&lt;static&gt;&gt;&#10;+executeDudeNotFullActivity()                     &lt;&lt;static&gt;&gt;&#10;+executeDudeFullActivity()                       &lt;&lt;static&gt;&gt;&#10;&#10;+scheduleActions()                           &lt;&lt;static&gt;&gt;&#10;&#10;+transformNotFull(): boolean                 &lt;&lt;static&gt;&gt;&#10;+transformFull(): boolean                 &lt;&lt;static&gt;&gt;&#10;+transformPlant(): boolean                       &lt;&lt;static&gt;&gt;&#10;+transformTree(): boolean                    &lt;&lt;static&gt;&gt;&#10;+transformSapling(): boolean                    &lt;&lt;static&gt;&gt;&#10;&#10;+moveToFairy(): boolean                       &lt;&lt;static&gt;&gt;&#10;+moveToNotFull(): boolean                    &lt;&lt;static&gt;&gt;&#10;+moveToFull(): boolean                    &lt;&lt;static&gt;&gt;&#10;&#10;+nextPositionFairy(): Point                  &lt;&lt;static&gt;&gt;&#10;+nextPositionDude(): Point                &lt;&lt;static&gt;&gt;&#10;&#10;+adjacent(): boolean                            &lt;&lt;static&gt;&gt;&#10;+getNumFromRange: int                     &lt;&lt;static&gt;&gt;&#10;&#10;+scheduleEvent()                                  &lt;&lt;static&gt;&gt;&#10;+unscheduleAllEvents()                       &lt;&lt;static&gt;&gt;&#10;+removePendingEvent()                        &lt;&lt;static&gt;&gt;&#10;+updateOnTime()                              &lt;&lt;static&gt;&gt;&#10;&#10;+getImageList(): List&lt;PImage&gt;                &lt;&lt;static&gt;&gt;&#10;+loadImages()                                &lt;&lt;static&gt;&gt;&#10;+processImageLine()                          &lt;&lt;static&gt;&gt;&#10;+getImages(): List&lt;PImage&gt;                   &lt;&lt;static&gt;&gt;&#10;+setAlpha()                                  &lt;&lt;static&gt;&gt;&#10;&#10;+shift()                                     &lt;&lt;static&gt;&gt;&#10;+contains(): boolean                         &lt;&lt;static&gt;&gt;&#10;&#10;+load()                                      &lt;&lt;static&gt;&gt;&#10;+processLine(): boolean                      &lt;&lt;static&gt;&gt;&#10;&#10;+parseBackground(): boolean                  &lt;&lt;static&gt;&gt;&#10;+parseSapling(): boolean                       &lt;&lt;static&gt;&gt;&#10;+parseDude(): boolean                    &lt;&lt;static&gt;&gt;&#10;+parseFairy(): boolean                         &lt;&lt;static&gt;&gt;&#10;+parseTree(): boolean                       &lt;&lt;static&gt;&gt;&#10;+parseObstacle(): boolean                        &lt;&lt;static&gt;&gt;&#10;+parseHouse(): boolean                        &lt;&lt;static&gt;&gt;&#10;&#10;+tryAddEntity()                              &lt;&lt;static&gt;&gt;&#10;+withinBounds(): boolean                     &lt;&lt;static&gt;&gt;&#10;+isOccupied(): boolean                       &lt;&lt;static&gt;&gt;&#10;&#10;+nearestEntity(): Optional&lt;Entity&gt;           &lt;&lt;static&gt;&gt;&#10;+distanceSquared(): int                      &lt;&lt;static&gt;&gt;&#10;+findNearest(): Optional&lt;Entity&gt;             &lt;&lt;static&gt;&gt;&#10;+addEntity()                                 &lt;&lt;static&gt;&gt;&#10;+moveEntity()                                &lt;&lt;static&gt;&gt;&#10;+removeEntity()                              &lt;&lt;static&gt;&gt;&#10;+removeEntityAt()                            &lt;&lt;static&gt;&gt;&#10;&#10;+getBackgroundImage(): Optional&lt;PImage&gt;      &lt;&lt;static&gt;&gt;&#10;+setBackground()                             &lt;&lt;static&gt;&gt;&#10;+getOccupant(): Optional&lt;Entity&gt;             &lt;&lt;static&gt;&gt;&#10;+getOccupancyCell(): Entity                  &lt;&lt;static&gt;&gt;&#10;+setOccupancyCell()                          &lt;&lt;static&gt;&gt;&#10;+getBackgroundCell(): Background             &lt;&lt;static&gt;&gt;&#10;+setBackgroundCell()                         &lt;&lt;static&gt;&gt;&#10;&#10;+viewportToWorld(): Point                    &lt;&lt;static&gt;&gt;&#10;+worldToViewport(): Point                    &lt;&lt;static&gt;&gt;&#10;+clamp()                                      &lt;&lt;static&gt;&gt;&#10;+shiftView()                                 &lt;&lt;static&gt;&gt;&#10;+drawBackground()                            &lt;&lt;static&gt;&gt;&#10;+drawEntities()                              &lt;&lt;static&gt;&gt;&#10;+drawViewport()                              &lt;&lt;static&gt;&gt;&#10;&#10;+createAnimationAction(): Action             &lt;&lt;static&gt;&gt;&#10;+createActivityAction(): Action              &lt;&lt;static&gt;&gt;&#10;&#10;+createHouse(): Entity                  &lt;&lt;static&gt;&gt;&#10;+createObstacle(): Entity                   &lt;&lt;static&gt;&gt;&#10;+createTree(): Entity                &lt;&lt;static&gt;&gt;&#10;+createStump(): Entity                    &lt;&lt;static&gt;&gt;&#10;+createSapling(): Entity                         &lt;&lt;static&gt;&gt;&#10;+createFairy(): Entity                     &lt;&lt;static&gt;&gt;&#10;+createDudeNotFull(): Entity                       &lt;&lt;static&gt;&gt;&#10;+createDudeFull(): Entity                        &lt;&lt;static&gt;&gt;" style="text;strokeColor=none;fillColor=none;align=left;verticalAlign=top;spacingLeft=4;spacingRight=4;overflow=hidden;rotatable=0;points=[[0,0.5],[1,0.5]];portConstraint=eastwest;fontColor=#000000;" parent="8I9pphBKhg92I5GMk5e_-77" vertex="1"><mxGeometry y="998" width="360" height="1352" as="geometry"/></mxCell><mxCell id="8I9pphBKhg92I5GMk5e_-81" value="Background" style="swimlane;fontStyle=1;align=center;verticalAlign=top;childLayout=stackLayout;horizontal=1;startSize=26;horizontalStack=0;resizeParent=1;resizeParentMax=0;resizeLast=0;collapsible=1;marginBottom=0;hachureGap=4;pointerEvents=0;sketch=0;fontColor=#5AA9E6;strokeColor=#FF6392;fillColor=#FFE45E;" parent="1" vertex="1"><mxGeometry x="850" y="30" width="250" height="144" as="geometry"/></mxCell><mxCell id="8I9pphBKhg92I5GMk5e_-82" value="+id: String&#10;+images: List&lt;PImage&gt;&#10;+imageIndex: int" style="text;strokeColor=none;fillColor=none;align=left;verticalAlign=top;spacingLeft=4;spacingRight=4;overflow=hidden;rotatable=0;points=[[0,0.5],[1,0.5]];portConstraint=eastwest;" parent="8I9pphBKhg92I5GMk5e_-81" vertex="1"><mxGeometry y="26" width="250" height="84" as="geometry"/></mxCell><mxCell id="8I9pphBKhg92I5GMk5e_-83" value="" style="line;strokeWidth=1;fillColor=none;align=left;verticalAlign=middle;spacingTop=-1;spacingLeft=3;spacingRight=3;rotatable=0;labelPosition=right;points=[];portConstraint=eastwest;" parent="8I9pphBKhg92I5GMk5e_-81" vertex="1"><mxGeometry y="110" width="250" height="8" as="geometry"/></mxCell><mxCell id="8I9pphBKhg92I5GMk5e_-84" value="TODO" style="text;strokeColor=none;fillColor=none;align=left;verticalAlign=top;spacingLeft=4;spacingRight=4;overflow=hidden;rotatable=0;points=[[0,0.5],[1,0.5]];portConstraint=eastwest;" parent="8I9pphBKhg92I5GMk5e_-81" vertex="1"><mxGeometry y="118" width="250" height="26" as="geometry"/></mxCell><mxCell id="8I9pphBKhg92I5GMk5e_-85" value="Entity" style="swimlane;fontStyle=1;align=center;verticalAlign=top;childLayout=stackLayout;horizontal=1;startSize=26;horizontalStack=0;resizeParent=1;resizeParentMax=0;resizeLast=0;collapsible=1;marginBottom=0;hachureGap=4;pointerEvents=0;sketch=0;fontColor=#5AA9E6;strokeColor=#FF6392;fillColor=#FFE45E;" parent="1" vertex="1"><mxGeometry x="1120" y="120" width="160" height="204" as="geometry"/></mxCell><mxCell id="8I9pphBKhg92I5GMk5e_-86" value="+kind: EntityKind&#10;+id: String&#10;+position: Point&#10;+images: List&lt;PImage&gt;&#10;+imageIndex: int&#10;+resourceLimit: int&#10;+resourceCount: int&#10;+actionPeriod: int&#10;+animationPeriod: int" style="text;strokeColor=none;fillColor=none;align=left;verticalAlign=top;spacingLeft=4;spacingRight=4;overflow=hidden;rotatable=0;points=[[0,0.5],[1,0.5]];portConstraint=eastwest;" parent="8I9pphBKhg92I5GMk5e_-85" vertex="1"><mxGeometry y="26" width="160" height="144" as="geometry"/></mxCell><mxCell id="8I9pphBKhg92I5GMk5e_-87" value="" style="line;strokeWidth=1;fillColor=none;align=left;verticalAlign=middle;spacingTop=-1;spacingLeft=3;spacingRight=3;rotatable=0;labelPosition=right;points=[];portConstraint=eastwest;" parent="8I9pphBKhg92I5GMk5e_-85" vertex="1"><mxGeometry y="170" width="160" height="8" as="geometry"/></mxCell><mxCell id="8I9pphBKhg92I5GMk5e_-88" value="TODO" style="text;strokeColor=none;fillColor=none;align=left;verticalAlign=top;spacingLeft=4;spacingRight=4;overflow=hidden;rotatable=0;points=[[0,0.5],[1,0.5]];portConstraint=eastwest;" parent="8I9pphBKhg92I5GMk5e_-85" vertex="1"><mxGeometry y="178" width="160" height="26" as="geometry"/></mxCell><mxCell id="8I9pphBKhg92I5GMk5e_-89" value="Viewport" style="swimlane;fontStyle=1;align=center;verticalAlign=top;childLayout=stackLayout;horizontal=1;startSize=26;horizontalStack=0;resizeParent=1;resizeParentMax=0;resizeLast=0;collapsible=1;marginBottom=0;hachureGap=4;pointerEvents=0;sketch=0;fontColor=#5AA9E6;strokeColor=#FF6392;fillColor=#FFE45E;" parent="1" vertex="1"><mxGeometry x="850" y="302.04" width="230" height="134" as="geometry"/></mxCell><mxCell id="8I9pphBKhg92I5GMk5e_-90" value="+row: int&#10;+col: int&#10;+numRows: int&#10;+numCols: int" style="text;strokeColor=none;fillColor=none;align=left;verticalAlign=top;spacingLeft=4;spacingRight=4;overflow=hidden;rotatable=0;points=[[0,0.5],[1,0.5]];portConstraint=eastwest;" parent="8I9pphBKhg92I5GMk5e_-89" vertex="1"><mxGeometry y="26" width="230" height="74" as="geometry"/></mxCell><mxCell id="8I9pphBKhg92I5GMk5e_-91" value="" style="line;strokeWidth=1;fillColor=none;align=left;verticalAlign=middle;spacingTop=-1;spacingLeft=3;spacingRight=3;rotatable=0;labelPosition=right;points=[];portConstraint=eastwest;" parent="8I9pphBKhg92I5GMk5e_-89" vertex="1"><mxGeometry y="100" width="230" height="8" as="geometry"/></mxCell><mxCell id="8I9pphBKhg92I5GMk5e_-92" value="TODO" style="text;strokeColor=none;fillColor=none;align=left;verticalAlign=top;spacingLeft=4;spacingRight=4;overflow=hidden;rotatable=0;points=[[0,0.5],[1,0.5]];portConstraint=eastwest;" parent="8I9pphBKhg92I5GMk5e_-89" vertex="1"><mxGeometry y="108" width="230" height="26" as="geometry"/></mxCell><mxCell id="8I9pphBKhg92I5GMk5e_-96" value="Event" style="swimlane;fontStyle=1;align=center;verticalAlign=top;childLayout=stackLayout;horizontal=1;startSize=26;horizontalStack=0;resizeParent=1;resizeParentMax=0;resizeLast=0;collapsible=1;marginBottom=0;hachureGap=4;pointerEvents=0;sketch=0;fontColor=#5AA9E6;strokeColor=#FF6392;fillColor=#FFE45E;" parent="1" vertex="1"><mxGeometry x="1115" y="413.54" width="165" height="158" as="geometry"/></mxCell><mxCell id="8I9pphBKhg92I5GMk5e_-97" value="+action: Action&#10;+time: long&#10;+entity: Entity" style="text;strokeColor=none;fillColor=none;align=left;verticalAlign=top;spacingLeft=4;spacingRight=4;overflow=hidden;rotatable=0;points=[[0,0.5],[1,0.5]];portConstraint=eastwest;" parent="8I9pphBKhg92I5GMk5e_-96" vertex="1"><mxGeometry y="26" width="165" height="64" as="geometry"/></mxCell><mxCell id="8I9pphBKhg92I5GMk5e_-98" value="" style="line;strokeWidth=1;fillColor=none;align=left;verticalAlign=middle;spacingTop=-1;spacingLeft=3;spacingRight=3;rotatable=0;labelPosition=right;points=[];portConstraint=eastwest;" parent="8I9pphBKhg92I5GMk5e_-96" vertex="1"><mxGeometry y="90" width="165" height="8" as="geometry"/></mxCell><mxCell id="8I9pphBKhg92I5GMk5e_-99" value="TODO" style="text;strokeColor=none;fillColor=none;align=left;verticalAlign=top;spacingLeft=4;spacingRight=4;overflow=hidden;rotatable=0;points=[[0,0.5],[1,0.5]];portConstraint=eastwest;" parent="8I9pphBKhg92I5GMk5e_-96" vertex="1"><mxGeometry y="98" width="165" height="60" as="geometry"/></mxCell><mxCell id="8I9pphBKhg92I5GMk5e_-100" value="&lt;&lt;enumeration&gt;&gt;&#10;EntityKind" style="swimlane;fontStyle=1;align=center;verticalAlign=top;childLayout=stackLayout;horizontal=1;startSize=40;horizontalStack=0;resizeParent=1;resizeParentMax=0;resizeLast=0;collapsible=1;marginBottom=0;hachureGap=4;pointerEvents=0;sketch=0;fontColor=#5AA9E6;strokeColor=#FF6392;fillColor=#FFE45E;" parent="1" vertex="1"><mxGeometry x="1320" y="30" width="160" height="172" as="geometry"/></mxCell><mxCell id="8I9pphBKhg92I5GMk5e_-101" value="HOUSE&#10;DUDE_FULL&#10;DUDE_NOT_FULL&#10;OBSTACLE&#10;FAIRY&#10;STUMP&#10;SAPLING&#10;TREE" style="text;strokeColor=none;fillColor=none;align=left;verticalAlign=top;spacingLeft=4;spacingRight=4;overflow=hidden;rotatable=0;points=[[0,0.5],[1,0.5]];portConstraint=eastwest;" parent="8I9pphBKhg92I5GMk5e_-100" vertex="1"><mxGeometry y="40" width="160" height="124" as="geometry"/></mxCell><mxCell id="8I9pphBKhg92I5GMk5e_-102" value="" style="line;strokeWidth=1;fillColor=none;align=left;verticalAlign=middle;spacingTop=-1;spacingLeft=3;spacingRight=3;rotatable=0;labelPosition=right;points=[];portConstraint=eastwest;" parent="8I9pphBKhg92I5GMk5e_-100" vertex="1"><mxGeometry y="164" width="160" height="8" as="geometry"/></mxCell><mxCell id="8I9pphBKhg92I5GMk5e_-104" value="Point" style="swimlane;fontStyle=1;align=center;verticalAlign=top;childLayout=stackLayout;horizontal=1;startSize=26;horizontalStack=0;resizeParent=1;resizeParentMax=0;resizeLast=0;collapsible=1;marginBottom=0;hachureGap=4;pointerEvents=0;sketch=0;fontColor=#5AA9E6;strokeColor=#FF6392;fillColor=#FFE45E;" parent="1" vertex="1"><mxGeometry x="1320" y="230" width="160" height="130" as="geometry"/></mxCell><mxCell id="8I9pphBKhg92I5GMk5e_-105" value="+x: int&#10;+y: int" style="text;strokeColor=none;fillColor=none;align=left;verticalAlign=top;spacingLeft=4;spacingRight=4;overflow=hidden;rotatable=0;points=[[0,0.5],[1,0.5]];portConstraint=eastwest;" parent="8I9pphBKhg92I5GMk5e_-104" vertex="1"><mxGeometry y="26" width="160" height="54" as="geometry"/></mxCell><mxCell id="8I9pphBKhg92I5GMk5e_-106" value="" style="line;strokeWidth=1;fillColor=none;align=left;verticalAlign=middle;spacingTop=-1;spacingLeft=3;spacingRight=3;rotatable=0;labelPosition=right;points=[];portConstraint=eastwest;" parent="8I9pphBKhg92I5GMk5e_-104" vertex="1"><mxGeometry y="80" width="160" height="8" as="geometry"/></mxCell><mxCell id="8I9pphBKhg92I5GMk5e_-107" value="+toString(): String&#10;+equals(): boolean" style="text;strokeColor=none;fillColor=none;align=left;verticalAlign=top;spacingLeft=4;spacingRight=4;overflow=hidden;rotatable=0;points=[[0,0.5],[1,0.5]];portConstraint=eastwest;" parent="8I9pphBKhg92I5GMk5e_-104" vertex="1"><mxGeometry y="88" width="160" height="42" as="geometry"/></mxCell><mxCell id="8I9pphBKhg92I5GMk5e_-108" value="Action" style="swimlane;fontStyle=1;align=center;verticalAlign=top;childLayout=stackLayout;horizontal=1;startSize=26;horizontalStack=0;resizeParent=1;resizeParentMax=0;resizeLast=0;collapsible=1;marginBottom=0;hachureGap=4;pointerEvents=0;sketch=0;fontColor=#5AA9E6;strokeColor=#FF6392;fillColor=#FFE45E;" parent="1" vertex="1"><mxGeometry x="1320" y="413.53999999999996" width="160" height="184" as="geometry"/></mxCell><mxCell id="8I9pphBKhg92I5GMk5e_-109" value="+kind: ActionKind&#10;+entity: Entity&#10;+world: WorldModel&#10;+imageStore: ImageStore&#10;+repeatCount: int" style="text;strokeColor=none;fillColor=none;align=left;verticalAlign=top;spacingLeft=4;spacingRight=4;overflow=hidden;rotatable=0;points=[[0,0.5],[1,0.5]];portConstraint=eastwest;" parent="8I9pphBKhg92I5GMk5e_-108" vertex="1"><mxGeometry y="26" width="160" height="124" as="geometry"/></mxCell><mxCell id="8I9pphBKhg92I5GMk5e_-110" value="" style="line;strokeWidth=1;fillColor=none;align=left;verticalAlign=middle;spacingTop=-1;spacingLeft=3;spacingRight=3;rotatable=0;labelPosition=right;points=[];portConstraint=eastwest;" parent="8I9pphBKhg92I5GMk5e_-108" vertex="1"><mxGeometry y="150" width="160" height="8" as="geometry"/></mxCell><mxCell id="8I9pphBKhg92I5GMk5e_-111" value="TODO" style="text;strokeColor=none;fillColor=none;align=left;verticalAlign=top;spacingLeft=4;spacingRight=4;overflow=hidden;rotatable=0;points=[[0,0.5],[1,0.5]];portConstraint=eastwest;" parent="8I9pphBKhg92I5GMk5e_-108" vertex="1"><mxGeometry y="158" width="160" height="26" as="geometry"/></mxCell><mxCell id="8I9pphBKhg92I5GMk5e_-112" value="ActionKind" style="swimlane;fontStyle=1;align=center;verticalAlign=top;childLayout=stackLayout;horizontal=1;startSize=26;horizontalStack=0;resizeParent=1;resizeParentMax=0;resizeLast=0;collapsible=1;marginBottom=0;hachureGap=4;pointerEvents=0;sketch=0;fontColor=#5AA9E6;strokeColor=#FF6392;fillColor=#FFE45E;" parent="1" vertex="1"><mxGeometry x="1520" y="439.54" width="160" height="68" as="geometry"/></mxCell><mxCell id="8I9pphBKhg92I5GMk5e_-113" value="ACTIVITY&#10;ANIMATION" style="text;strokeColor=none;fillColor=none;align=left;verticalAlign=top;spacingLeft=4;spacingRight=4;overflow=hidden;rotatable=0;points=[[0,0.5],[1,0.5]];portConstraint=eastwest;" parent="8I9pphBKhg92I5GMk5e_-112" vertex="1"><mxGeometry y="26" width="160" height="34" as="geometry"/></mxCell><mxCell id="8I9pphBKhg92I5GMk5e_-114" value="" style="line;strokeWidth=1;fillColor=none;align=left;verticalAlign=middle;spacingTop=-1;spacingLeft=3;spacingRight=3;rotatable=0;labelPosition=right;points=[];portConstraint=eastwest;" parent="8I9pphBKhg92I5GMk5e_-112" vertex="1"><mxGeometry y="60" width="160" height="8" as="geometry"/></mxCell></root></mxGraphModel></diagram></mxfile>